<svg width="60" height="60" viewBox="0 0 60 60" fill="none" xmlns="http://www.w3.org/2000/svg">
<g clip-path="url(#clip0_1_116)">
<path d="M27.5 42.5C27.5 43.875 28.625 45 30 45C31.375 45 32.5 43.875 32.5 42.5C32.5 41.125 31.375 40 30 40C28.625 40 27.5 41.125 27.5 42.5ZM27.5 7.5V17.5H32.5V12.7C40.975 13.925 47.5 21.175 47.5 30C47.5 39.675 39.675 47.5 30 47.5C20.325 47.5 12.5 39.675 12.5 30C12.5 25.8 13.975 21.95 16.45 18.95L30 32.5L33.525 28.975L16.525 11.975V12.025C11.05 16.125 7.5 22.625 7.5 30C7.5 42.425 17.55 52.5 30 52.5C42.425 52.5 52.5 42.425 52.5 30C52.5 17.575 42.425 7.5 30 7.5H27.5ZM45 30C45 28.625 43.875 27.5 42.5 27.5C41.125 27.5 40 28.625 40 30C40 31.375 41.125 32.5 42.5 32.5C43.875 32.5 45 31.375 45 30ZM15 30C15 31.375 16.125 32.5 17.5 32.5C18.875 32.5 20 31.375 20 30C20 28.625 18.875 27.5 17.5 27.5C16.125 27.5 15 28.625 15 30Z" fill="white"/>
</g>
<defs>
<clipPath id="clip0_1_116">
<rect width="60" height="60" fill="white"/>
</clipPath>
</defs>
</svg>
